<svg width="44" height="44" viewBox="0 0 44 44" fill="none" xmlns="http://www.w3.org/2000/svg">
<g clip-path="url(#clip0_130_251)">
<path d="M22.0001 0C9.86923 0 0 9.86909 0 21.9999C0 34.1308 9.86923 44 22.0001 44C34.1309 44 44 34.1308 44 21.9999C44 9.86909 34.1309 0 22.0001 0ZM22.0001 41.2129C11.4061 41.2129 2.78713 32.5941 2.78713 21.9999C2.78713 11.4061 11.4061 2.78713 22.0001 2.78713C32.594 2.78713 41.2129 11.4061 41.2129 21.9999C41.2129 32.5941 32.5941 41.2129 22.0001 41.2129Z" fill="#F6882A"/>
<path d="M37.1442 20.6063H35.1347C34.4844 14.4341 29.5657 9.51536 23.3935 8.86512V6.8556C23.3935 6.08607 22.7694 5.46204 21.9999 5.46204C21.2302 5.46204 20.6063 6.08607 20.6063 6.8556V8.86512C14.434 9.51536 9.51524 14.4339 8.865 20.6063H6.85548C6.08595 20.6063 5.46191 21.2304 5.46191 21.9999C5.46191 22.7696 6.08595 23.3935 6.85548 23.3935H8.865C9.51524 29.5658 14.434 34.4846 20.6063 35.1348V37.1443C20.6063 37.914 21.2302 38.5379 21.9999 38.5379C22.7694 38.5379 23.3935 37.914 23.3935 37.1443V35.1348C29.5657 34.4846 34.4844 29.5658 35.1347 23.3935H37.1442C37.9137 23.3935 38.5378 22.7696 38.5378 21.9999C38.5378 21.2304 37.9137 20.6063 37.1442 20.6063ZM32.3251 20.6063H27.257C26.7591 18.7231 25.2766 17.2407 23.3935 16.7428V11.6747C28.0265 12.2971 31.7029 15.9733 32.3251 20.6063ZM20.6063 11.6747V16.7427C18.7231 17.2406 17.2406 18.7231 16.7427 20.6063H11.6746C12.2969 15.9733 15.9733 12.2971 20.6063 11.6747ZM11.6746 23.3935H16.7427C17.2406 25.2767 18.7231 26.7592 20.6063 27.2571V32.3252C15.9733 31.703 12.2968 28.0266 11.6746 23.3935ZM23.3935 32.3252V27.2571C25.2767 26.7592 26.7591 25.2767 27.257 23.3935H32.3251C31.7029 28.0266 28.0267 31.703 23.3935 32.3252Z" fill="#F6882A"/>
</g>
<defs>
<clipPath id="clip0_130_251">
<rect width="44" height="44" fill="white"/>
</clipPath>
</defs>
</svg>
