<svg width="32" height="33" viewBox="0 0 32 33" fill="none" xmlns="http://www.w3.org/2000/svg">
<path d="M7.16286 32.8927H0.528571V10.9319H7.16286V32.8927ZM3.84214 7.93628C1.72071 7.93628 0 6.13008 0 3.94942C1.51843e-08 2.90197 0.404796 1.89742 1.12534 1.15676C1.84588 0.416098 2.82314 0 3.84214 0C4.86114 0 5.83841 0.416098 6.55895 1.15676C7.27949 1.89742 7.68429 2.90197 7.68429 3.94942C7.68429 6.13008 5.96286 7.93628 3.84214 7.93628ZM31.9929 32.8927H25.3729V22.2023C25.3729 19.6546 25.3229 16.3873 21.9236 16.3873C18.4743 16.3873 17.9457 19.1553 17.9457 22.0188V32.8927H11.3186V10.9319H17.6814V13.9276H17.7743C18.66 12.2021 20.8236 10.3813 24.0514 10.3813C30.7657 10.3813 32 14.9261 32 20.8293V32.8927H31.9929Z" fill="#F2F2F2"/>
</svg>
