<svg width="42" height="45" viewBox="0 0 42 45" fill="none" xmlns="http://www.w3.org/2000/svg">
<path d="M19.4345 3.47472C19.9524 2.64732 20.2113 2.23361 20.5444 2.09244C20.8351 1.96919 21.1649 1.96919 21.4558 2.09244C21.7887 2.23361 22.0476 2.64732 22.5655 3.47472L27.1223 10.7553C27.3174 11.0673 27.4152 11.2233 27.5483 11.3367C27.6661 11.4371 27.8036 11.5129 27.9523 11.5594C28.1206 11.612 28.3072 11.6127 28.6807 11.6141L37.6453 11.6473C38.7045 11.6512 39.2343 11.6532 39.5364 11.872C39.8 12.0629 39.9675 12.355 39.9971 12.6747C40.0313 13.0414 39.7582 13.4861 39.2116 14.3754L34.8851 21.4168C34.6775 21.7542 34.574 21.923 34.5334 22.1032C34.4976 22.2627 34.4976 22.4278 34.5334 22.5871C34.574 22.7673 34.6775 22.936 34.8851 23.2737L39.2116 30.3149C39.7582 31.2042 40.0313 31.6489 39.9971 32.0156C39.9675 32.3353 39.8 32.6275 39.5364 32.8183C39.2343 33.0372 38.7045 33.0392 37.6453 33.043L28.6807 33.0763C28.3072 33.0777 28.1206 33.0783 27.9523 33.131C27.8036 33.1773 27.6661 33.2531 27.5483 33.3537C27.4152 33.4671 27.3174 33.623 27.1223 33.935L22.5655 41.2156C22.0476 42.043 21.7887 42.4567 21.4558 42.598C21.1649 42.7211 20.8351 42.7211 20.5444 42.598C20.2113 42.4567 19.9524 42.043 19.4345 41.2156L14.8779 33.935C14.6826 33.623 14.585 33.4671 14.4518 33.3537C14.334 33.2531 14.1965 33.1773 14.0477 33.131C13.8796 33.0783 13.6928 33.0777 13.3193 33.0763L4.35479 33.043C3.29548 33.0392 2.76584 33.0372 2.4637 32.8183C2.20021 32.6275 2.03251 32.3353 2.00283 32.0156C1.96881 31.6489 2.24203 31.2042 2.78848 30.3149L7.11509 23.2737C7.32245 22.936 7.42615 22.7673 7.46664 22.5871C7.50248 22.4278 7.50248 22.2627 7.46664 22.1032C7.42615 21.923 7.32245 21.7542 7.11509 21.4168L2.78848 14.3754C2.24203 13.4861 1.96881 13.0414 2.00283 12.6747C2.03251 12.355 2.20021 12.0629 2.4637 11.872C2.76584 11.6532 3.29548 11.6512 4.35479 11.6473L13.3193 11.6141C13.6928 11.6127 13.8796 11.612 14.0477 11.5594C14.1965 11.5129 14.334 11.4371 14.4518 11.3367C14.585 11.2233 14.6826 11.0673 14.8779 10.7553L19.4345 3.47472Z" stroke="#F6882A" stroke-width="3" stroke-linecap="round" stroke-linejoin="round"/>
</svg>
