<svg width="46" height="46" viewBox="0 0 46 46" fill="none" xmlns="http://www.w3.org/2000/svg">
<g clip-path="url(#clip0_130_255)">
<path d="M23.1551 14.4383C18.3926 14.4383 14.5301 18.3008 14.5301 23.0633C14.5301 27.8257 18.3926 31.6883 23.1551 31.6883C27.9175 31.6883 31.7801 27.8272 31.7801 23.0633C31.7801 18.2994 27.9189 14.4383 23.1551 14.4383ZM23.1551 28.8133C19.9839 28.8133 17.3389 26.1711 17.3389 23C17.3389 19.8289 19.9178 17.25 23.0889 17.25C26.2601 17.25 28.8389 19.8289 28.8389 23C28.8389 26.1711 26.3262 28.8133 23.1551 28.8133ZM45.9854 22.6665C45.9682 22.5946 45.9768 22.517 45.9552 22.4466C45.9466 22.4164 45.9265 22.3991 45.9164 22.3733C45.9006 22.333 45.9049 22.2841 45.8834 22.2453C41.7017 12.6716 32.6914 7.16309 23.0889 7.16309C13.4864 7.16309 4.29505 12.663 0.11193 22.2367C0.0946797 22.277 0.0975547 22.3186 0.0817422 22.3646C0.0716797 22.3934 0.0515547 22.4078 0.0414922 22.4351C0.0199297 22.507 0.0285547 22.5831 0.0141797 22.6565C-0.0116953 22.7858 -0.0361328 22.9123 -0.0361328 23.0431C-0.0361328 23.174 -0.0116953 23.2976 0.0141797 23.4284C0.0285547 23.5003 0.0184922 23.5793 0.0414922 23.6469C0.0501172 23.68 0.0716797 23.6929 0.0817422 23.7216C0.0961172 23.7605 0.0932422 23.8093 0.11193 23.8496C4.29505 33.4205 13.3973 38.8398 22.9998 38.8398C32.6023 38.8398 41.7031 33.432 45.8848 23.8582C45.9064 23.8165 45.9021 23.7748 45.9179 23.7288C45.9279 23.7044 45.9466 23.6857 45.9552 23.657C45.9768 23.5865 45.9711 23.5103 45.9854 23.4356C46.0113 23.3062 46.0343 23.1812 46.0343 23.0475C46.0343 22.921 46.0099 22.7959 45.984 22.6651L45.9854 22.6665ZM22.9998 35.9648C14.8564 35.9648 6.83943 31.6725 2.90068 23.0417C6.80205 14.4411 14.9254 10.0366 23.0889 10.0366C31.2511 10.0366 39.1932 14.4455 43.0961 23.0503C39.1961 31.6495 31.1648 35.9648 22.9998 35.9648Z" fill="#F6882A"/>
</g>
<defs>
<clipPath id="clip0_130_255">
<rect width="46" height="46" fill="white"/>
</clipPath>
</defs>
</svg>
