<svg width="24" height="24" viewBox="0 0 24 24" fill="none" xmlns="http://www.w3.org/2000/svg">
<path d="M16.2102 11.7543L22.8934 5.07103C23.7136 4.25091 23.7136 2.9212 22.8934 2.10041L21.4081 0.615096C20.588 -0.205032 19.2583 -0.205032 18.4375 0.615096L11.7543 7.29833L5.07103 0.615096C4.25091 -0.205032 2.9212 -0.205032 2.10041 0.615096L0.615096 2.10041C-0.205032 2.92054 -0.205032 4.25024 0.615096 5.07103L7.29833 11.7543L0.615096 18.4375C-0.205032 19.2576 -0.205032 20.5873 0.615096 21.4081L2.10041 22.8934C2.92054 23.7136 4.25091 23.7136 5.07103 22.8934L11.7543 16.2102L18.4375 22.8934C19.2576 23.7136 20.588 23.7136 21.4081 22.8934L22.8934 21.4081C23.7136 20.588 23.7136 19.2583 22.8934 18.4375L16.2102 11.7543Z" fill="#7E7E7E"/>
</svg>
